<?xml version="1.0" encoding="UTF-8" standalone="no"?>
<svg
   xmlns:dc="http://purl.org/dc/elements/1.1/"
   xmlns:cc="http://creativecommons.org/ns#"
   xmlns:rdf="http://www.w3.org/1999/02/22-rdf-syntax-ns#"
   xmlns:svg="http://www.w3.org/2000/svg"
   xmlns="http://www.w3.org/2000/svg"
   xmlns:sodipodi="http://sodipodi.sourceforge.net/DTD/sodipodi-0.dtd"
   xmlns:inkscape="http://www.inkscape.org/namespaces/inkscape"
   height="60"
   id="Layer_1"
   version="1.1"
   viewBox="0 0 60 60"
   width="60"
   xml:space="preserve"
   sodipodi:docname="instagram-icon.svg"
   inkscape:version="0.92.4 (5da689c313, 2019-01-14)"><metadata
     id="metadata9"><rdf:RDF><cc:Work
         rdf:about=""><dc:format>image/svg+xml</dc:format><dc:type
           rdf:resource="http://purl.org/dc/dcmitype/StillImage" /></cc:Work></rdf:RDF></metadata><defs
     id="defs7" /><sodipodi:namedview
     pagecolor="#ffffff"
     bordercolor="#666666"
     borderopacity="1"
     objecttolerance="10"
     gridtolerance="10"
     guidetolerance="10"
     inkscape:pageopacity="0"
     inkscape:pageshadow="2"
     inkscape:window-width="1920"
     inkscape:window-height="1001"
     id="namedview5"
     showgrid="false"
     inkscape:zoom="9.9628179"
     inkscape:cx="22.362121"
     inkscape:cy="24.046105"
     inkscape:window-x="-9"
     inkscape:window-y="-9"
     inkscape:window-maximized="1"
     inkscape:current-layer="Layer_1" /><path
     d="m 39.271,22.578 v -0.006 c 0.502,0 1.005,0.01 1.508,-0.002 0.646,-0.016 1.172,-0.57 1.172,-1.217 0,-0.963 0,-1.927 0,-2.89 0,-0.691 -0.547,-1.24 -1.236,-1.241 -0.961,0 -1.922,-0.001 -2.883,0 -0.688,10e-4 -1.236,0.552 -1.236,1.243 -10e-4,0.955 -0.004,1.91 0.003,2.865 0.001,0.143 0.028,0.291 0.073,0.426 0.173,0.508 0.639,0.82 1.209,0.823 0.463,0 0.927,-0.001 1.39,-0.001 z M 30,23.817 c -3.384,-0.002 -6.135,2.721 -6.182,6.089 -0.049,3.46 2.72,6.201 6.04,6.272 3.454,0.074 6.248,-2.686 6.321,-6.043 0.075,-3.46 -2.717,-6.32 -6.179,-6.318 z m -11.954,3.299 v 0.082 c 0,4.515 -10e-4,9.03 0,13.545 0,0.649 0.562,1.208 1.212,1.208 7.16,10e-4 14.319,10e-4 21.479,0 0.656,0 1.215,-0.557 1.215,-1.212 0.001,-4.509 0,-9.02 0,-13.528 V 27.117 H 39.04 c 0.411,1.314 0.537,2.651 0.376,4.014 -0.161,1.363 -0.601,2.631 -1.316,3.803 -0.715,1.172 -1.644,2.145 -2.779,2.918 -2.944,2.006 -6.821,2.182 -9.946,0.428 -1.579,-0.885 -2.819,-2.12 -3.685,-3.713 -1.289,-2.373 -1.495,-4.865 -0.739,-7.451 -0.968,0 -1.93,0 -2.905,0 z m 24.159,18.139 c 0.159,-0.026 0.318,-0.049 0.475,-0.083 1.246,-0.265 2.264,-1.304 2.508,-2.557 0.025,-0.137 0.045,-0.273 0.067,-0.409 V 17.794 c -0.021,-0.133 -0.04,-0.268 -0.065,-0.401 -0.268,-1.367 -1.396,-2.428 -2.78,-2.618 -0.058,-0.007 -0.113,-0.02 -0.17,-0.03 H 17.761 c -0.147,0.027 -0.296,0.047 -0.441,0.08 -1.352,0.308 -2.352,1.396 -2.545,2.766 -0.008,0.057 -0.02,0.114 -0.029,0.171 V 42.24 c 0.028,0.154 0.05,0.311 0.085,0.465 0.299,1.322 1.427,2.347 2.77,2.52 0.064,0.008 0.13,0.021 0.195,0.03 z M 30,60 C 13.432,60 0,46.568 0,30 0,13.431 13.432,0 30,0 46.568,0 60,13.431 60,30 60,46.568 46.568,60 30,60 Z"
     style="clip-rule:evenodd;fill:#940c67;fill-rule:evenodd;fill-opacity:1;opacity:1"
     id="path2"
     inkscape:connector-curvature="0" /><path
     style="fill:#ffff00;fill-opacity:0;stroke:none;stroke-width:0.36608559;stroke-miterlimit:4;stroke-dasharray:none;stroke-opacity:1;opacity:1"
     d="M 17.378182,45.14045 C 16.37868,44.902318 15.484973,44.175182 15.058698,43.253276 l -0.21453,-0.463965 V 29.991727 17.194143 l 0.279015,-0.568167 c 0.306418,-0.623967 0.833623,-1.155445 1.498086,-1.51023 l 0.431109,-0.230187 h 12.948144 12.948144 l 0.431109,0.230187 c 0.664464,0.354785 1.191668,0.886263 1.498086,1.51023 l 0.279016,0.568167 v 12.797584 12.797584 l -0.279016,0.568166 c -0.334617,0.68139 -0.901595,1.217768 -1.666216,1.57629 l -0.564099,0.264501 -12.446277,0.01598 c -7.033605,0.009 -12.610146,-0.02306 -12.823087,-0.0738 z m 23.976072,-3.325356 c 0.660405,-0.361657 0.640867,-0.123903 0.640867,-7.798515 v -6.935675 h -1.516337 c -1.402929,0 -1.511289,0.01314 -1.448839,0.175653 0.345581,0.899313 0.48164,3.196433 0.261174,4.409444 -0.353555,1.945259 -1.444809,3.934473 -2.875917,5.242427 -1.958564,1.790016 -4.325697,2.635756 -6.959179,2.486406 -4.252926,-0.241192 -7.68302,-3.176807 -8.70002,-7.44583 -0.230638,-0.968141 -0.211022,-2.936415 0.04026,-4.040021 l 0.18855,-0.828079 H 19.49537 18.005924 v 6.935675 c 0,6.203569 0.01727,6.972077 0.163643,7.280529 0.164913,0.347529 0.362526,0.500346 0.834227,0.645121 0.141237,0.04335 5.157517,0.071 11.147288,0.06146 10.055882,-0.01603 10.914456,-0.03048 11.203172,-0.188592 z m -9.496827,-5.887363 c 1.862874,-0.597948 3.325227,-2.028587 4.030941,-3.943518 0.203231,-0.551461 0.23492,-0.820232 0.23492,-1.992486 0,-1.209234 -0.02806,-1.431743 -0.260804,-2.067893 -0.669488,-1.829915 -2.201136,-3.296048 -4.055244,-3.881785 -0.547626,-0.173003 -0.946162,-0.221965 -1.806718,-0.221965 -1.294635,0 -2.127702,0.217801 -3.149999,0.823549 -3.17549,1.881593 -4.030397,6.13967 -1.821545,9.072654 0.851083,1.130097 2.031617,1.922518 3.425035,2.299019 0.959118,0.259154 2.442082,0.220995 3.403414,-0.08758 z m 9.496827,-13.485483 c 0.551163,-0.300394 0.640867,-0.655646 0.640867,-2.538029 0,-2.629269 -0.05992,-2.69475 -2.509331,-2.742075 -1.928544,-0.03726 -2.327571,0.04813 -2.681313,0.573802 -0.217849,0.323728 -0.22951,0.432347 -0.22951,2.137915 0,2.217204 0.06841,2.40229 0.997871,2.69969 0.141237,0.04519 0.979482,0.07248 1.862766,0.06064 1.29165,-0.01731 1.667169,-0.05488 1.91865,-0.191943 z"
     id="path4524"
     inkscape:connector-curvature="0" /><path
     style="opacity:1;fill:#ffff00;fill-opacity:0;stroke:none;stroke-width:0.36608559;stroke-miterlimit:4;stroke-dasharray:none;stroke-opacity:1"
     d="M 17.378182,45.14045 C 16.37868,44.902318 15.484973,44.175182 15.058698,43.253276 l -0.21453,-0.463965 V 29.991727 17.194143 l 0.279015,-0.568167 c 0.306418,-0.623967 0.833623,-1.155445 1.498086,-1.51023 l 0.431109,-0.230187 h 12.948144 12.948144 l 0.431109,0.230187 c 0.664464,0.354785 1.191668,0.886263 1.498086,1.51023 l 0.279016,0.568167 v 12.797584 12.797584 l -0.279016,0.568166 c -0.334617,0.68139 -0.901595,1.217768 -1.666216,1.57629 l -0.564099,0.264501 -12.446277,0.01598 c -7.033605,0.009 -12.610146,-0.02306 -12.823087,-0.0738 z m 23.976072,-3.325356 c 0.660405,-0.361657 0.640867,-0.123903 0.640867,-7.798515 v -6.935675 h -1.516337 c -1.402929,0 -1.511289,0.01314 -1.448839,0.175653 0.345581,0.899313 0.48164,3.196433 0.261174,4.409444 -0.353555,1.945259 -1.444809,3.934473 -2.875917,5.242427 -1.958564,1.790016 -4.325697,2.635756 -6.959179,2.486406 -4.252926,-0.241192 -7.68302,-3.176807 -8.70002,-7.44583 -0.230638,-0.968141 -0.211022,-2.936415 0.04026,-4.040021 l 0.18855,-0.828079 H 19.49537 18.005924 v 6.935675 c 0,6.203569 0.01727,6.972077 0.163643,7.280529 0.164913,0.347529 0.362526,0.500346 0.834227,0.645121 0.141237,0.04335 5.157517,0.071 11.147288,0.06146 10.055882,-0.01603 10.914456,-0.03048 11.203172,-0.188592 z m -9.496827,-5.887363 c 1.862874,-0.597948 3.325227,-2.028587 4.030941,-3.943518 0.203231,-0.551461 0.23492,-0.820232 0.23492,-1.992486 0,-1.209234 -0.02806,-1.431743 -0.260804,-2.067893 -0.669488,-1.829915 -2.201136,-3.296048 -4.055244,-3.881785 -0.547626,-0.173003 -0.946162,-0.221965 -1.806718,-0.221965 -1.294635,0 -2.127702,0.217801 -3.149999,0.823549 -3.17549,1.881593 -4.030397,6.13967 -1.821545,9.072654 0.851083,1.130097 2.031617,1.922518 3.425035,2.299019 0.959118,0.259154 2.442082,0.220995 3.403414,-0.08758 z m 9.496827,-13.485483 c 0.551163,-0.300394 0.640867,-0.655646 0.640867,-2.538029 0,-2.629269 -0.05992,-2.69475 -2.509331,-2.742075 -1.928544,-0.03726 -2.327571,0.04813 -2.681313,0.573802 -0.217849,0.323728 -0.22951,0.432347 -0.22951,2.137915 0,2.217204 0.06841,2.40229 0.997871,2.69969 0.141237,0.04519 0.979482,0.07248 1.862766,0.06064 1.29165,-0.01731 1.667169,-0.05488 1.91865,-0.191943 z"
     id="path4526"
     inkscape:connector-curvature="0" /><path
     style="opacity:1;fill:#ffffee;fill-opacity:1;stroke:none;stroke-width:0.36608559;stroke-miterlimit:4;stroke-dasharray:none;stroke-opacity:1"
     d="M 17.378182,45.14045 C 16.37868,44.902318 15.484973,44.175182 15.058698,43.253276 l -0.21453,-0.463965 V 29.991727 17.194143 l 0.279015,-0.568167 c 0.306418,-0.623967 0.833623,-1.155445 1.498086,-1.51023 l 0.431109,-0.230187 h 12.948144 12.948144 l 0.431109,0.230187 c 0.664464,0.354785 1.191668,0.886263 1.498086,1.51023 l 0.279016,0.568167 v 12.797584 12.797584 l -0.279016,0.568166 c -0.334617,0.68139 -0.901595,1.217768 -1.666216,1.57629 l -0.564099,0.264501 -12.446277,0.01598 c -7.033605,0.009 -12.610146,-0.02306 -12.823087,-0.0738 z m 23.976072,-3.325356 c 0.660405,-0.361657 0.640867,-0.123903 0.640867,-7.798515 v -6.935675 h -1.516337 c -1.402929,0 -1.511289,0.01314 -1.448839,0.175653 0.345581,0.899313 0.48164,3.196433 0.261174,4.409444 -0.353555,1.945259 -1.444809,3.934473 -2.875917,5.242427 -1.958564,1.790016 -4.325697,2.635756 -6.959179,2.486406 -4.252926,-0.241192 -7.68302,-3.176807 -8.70002,-7.44583 -0.230638,-0.968141 -0.211022,-2.936415 0.04026,-4.040021 l 0.18855,-0.828079 H 19.49537 18.005924 v 6.935675 c 0,6.203569 0.01727,6.972077 0.163643,7.280529 0.164913,0.347529 0.362526,0.500346 0.834227,0.645121 0.141237,0.04335 5.157517,0.071 11.147288,0.06146 10.055882,-0.01603 10.914456,-0.03048 11.203172,-0.188592 z m -9.496827,-5.887363 c 1.862874,-0.597948 3.325227,-2.028587 4.030941,-3.943518 0.203231,-0.551461 0.23492,-0.820232 0.23492,-1.992486 0,-1.209234 -0.02806,-1.431743 -0.260804,-2.067893 -0.669488,-1.829915 -2.201136,-3.296048 -4.055244,-3.881785 -0.547626,-0.173003 -0.946162,-0.221965 -1.806718,-0.221965 -1.294635,0 -2.127702,0.217801 -3.149999,0.823549 -3.17549,1.881593 -4.030397,6.13967 -1.821545,9.072654 0.851083,1.130097 2.031617,1.922518 3.425035,2.299019 0.959118,0.259154 2.442082,0.220995 3.403414,-0.08758 z m 9.496827,-13.485483 c 0.551163,-0.300394 0.640867,-0.655646 0.640867,-2.538029 0,-2.629269 -0.05992,-2.69475 -2.509331,-2.742075 -1.928544,-0.03726 -2.327571,0.04813 -2.681313,0.573802 -0.217849,0.323728 -0.22951,0.432347 -0.22951,2.137915 0,2.217204 0.06841,2.40229 0.997871,2.69969 0.141237,0.04519 0.979482,0.07248 1.862766,0.06064 1.29165,-0.01731 1.667169,-0.05488 1.91865,-0.191943 z"
     id="path4528"
     inkscape:connector-curvature="0" /></svg>